# xmcd
# Track frame offsets:
# 150
# 14959
# 30562
# 44433
# 59032
# 71119
# 83223
# 98352
# 113014
# 125537
# 138702
# 149261
# 159959
# 181040
# 192849
#
# Disc length: 2713 seconds
# Revision: 3
# Processed by: cddbd v1.5.1PL2 Copyright (c) Steve Scherf et al.
# Submitted via: VisiTrax 2.10.0.248 - For more info visit www.synapsa.com
#
DISCID=d30a970f
DTITLE=Various Artist - Just Country CD 2
DYEAR=1900
DGENRE=Country
TTITLE0=Slim Dusty And Keith Urban - Lights On The Hill
TTITLE1=Tanya Tucker - Shotgun
TTITLE2=Glen Campbell - Witchita Lineman
TTITLE3=Chris LeDoux - Call Of The Wild
TTITLE4=Jean Shepard - A Satisfied Mind
TTITLE5=George Jones - We Must Have Been Out Of Our Minds
TTITLE6=Billie Jo Spears - Another Somebody Dane Somebody Wrong Song
TTITLE7=Kieth Urban - Arms Of mary
TTITLE8=Crystal Gale - Everybody's Reaching out To Someone
TTITLE9=Johnny Tillotson - Send Me The Pillow That You Dream On
TTITLE10=Ferlin Husky - Wings Of A Dove
TTITLE11=Tennessee Ernie Ford - Country Junction
TTITLE12=The Highwaymen - The Road Goes On Forever
TTITLE13=Jody Miller - He Walks Like A Man
TTITLE14=Bill And Boyd - Put Another Log On the Fire
EXTD=
EXTT0=
EXTT1=
EXTT2=
EXTT3=
EXTT4=
EXTT5=
EXTT6=
EXTT7=
EXTT8=
EXTT9=
EXTT10=
EXTT11=
EXTT12=
EXTT13=
EXTT14=
PLAYORDER=
